# xmcd CD database file
#
# Track frame offsets:
#	150
#	7634
#	28644
#	48234
#	67405
#	88762
#	113111
#	118530
#	139187
#	163002
#	190818
#
# Disc length: 2825 seconds
#
# Revision: 0
# Processed by: cddbd v1.5.1PL0 Copyright (c) Steve Scherf et al.
# Submitted via: CDex 1.51
#
DISCID=8e0b070b
DTITLE=THE ABSENCE - FROM YOUR GRAVE
DYEAR=2005
DGENRE=Melodic Death Metal
TTITLE0=Intro
TTITLE1=A Breath Beneath
TTITLE2=Necropolis
TTITLE3=From your Grave
TTITLE4=Heaven Ablaze
TTITLE5=Summoning the Darkness
TTITLE6=Shattered
TTITLE7=I,Deceiver
TTITLE8=My Ruin
TTITLE9=Seven Demons
TTITLE10=The Dance
EXTD=YEAR: 2005
EXTT0=
EXTT1=
EXTT2=
EXTT3=
EXTT4=
EXTT5=
EXTT6=
EXTT7=
EXTT8=
EXTT9=
EXTT10=
PLAYORDER=
